<svg id="b30ad270-9d24-48e9-926d-fbe579998d8e" data-name="Слой 1" xmlns="http://www.w3.org/2000/svg" xmlns:xlink="http://www.w3.org/1999/xlink" viewBox="0 0 121.7 40.1"><defs><style>.e7fddc0a-96b3-47e3-827a-8953c6a765bb{fill:url(#bf99b22f-5234-4523-9e7a-f0f5d9aa7eec);}</style><linearGradient id="bf99b22f-5234-4523-9e7a-f0f5d9aa7eec" x1="15.07" y1="17.6" x2="136.58" y2="23.9" gradientUnits="userSpaceOnUse"><stop offset="0.13" stop-color="#4f7dff"/><stop offset="0.88" stop-color="#ff7dff"/></linearGradient></defs><text x="-14.8" y="-2.2"/><path class="e7fddc0a-96b3-47e3-827a-8953c6a765bb" d="M39.1,7.3a1.7,1.7,0,0,1,1.2.3,1.6,1.6,0,0,1,.3,1.1V31.4a1.9,1.9,0,0,1-.3,1.2,1.7,1.7,0,0,1-1.2.3H36.4A1.3,1.3,0,0,1,35,31.4V23.2a33.1,33.1,0,0,1,1.2-8.1h-.4A28.7,28.7,0,0,1,33,21.8l-2.6,4.6a1.8,1.8,0,0,1-.6.8,1.3,1.3,0,0,1-1,.3H27.2a1.3,1.3,0,0,1-1-.3c-.3-.1-.5-.4-.7-.8l-2.6-4.6a25.3,25.3,0,0,1-2.6-6.7h-.4A32.6,32.6,0,0,1,21,23.3v8.1a1.6,1.6,0,0,1-.3,1.1,1.6,1.6,0,0,1-1.1.4H17a1.6,1.6,0,0,1-1.1-.4,1.2,1.2,0,0,1-.4-1.1V8.7a1.2,1.2,0,0,1,.4-1.1A1.6,1.6,0,0,1,17,7.3h2.4l1.2.2a2.4,2.4,0,0,1,.8.9L28,20.5,34.6,8.4c.3-.5.5-.8.8-.9a2.9,2.9,0,0,1,1.2-.2ZM47.7,7a3.4,3.4,0,0,1,2,.5,2.8,2.8,0,0,1,.5,2v.4a2.8,2.8,0,0,1-.5,2,2.8,2.8,0,0,1-2,.5h-.8a2.7,2.7,0,0,1-2-.5,3.4,3.4,0,0,1-.5-2V9.5a3.4,3.4,0,0,1,.5-2,3.2,3.2,0,0,1,2-.5Zm1,7.1a1.3,1.3,0,0,1,1,.3,1.6,1.6,0,0,1,.3,1.1v16a1.6,1.6,0,0,1-.3,1.1,1.3,1.3,0,0,1-1,.3H45.9a1.3,1.3,0,0,1-1-.3,1.6,1.6,0,0,1-.3-1.1v-16a1.6,1.6,0,0,1,.3-1.1,1.3,1.3,0,0,1,1-.3ZM65.5,7.3a8.4,8.4,0,0,1,6.2,2.2A8.2,8.2,0,0,1,74,15.6c0,3.6-1.4,6.1-4.2,7.4a7.4,7.4,0,0,1,.8,1.2l3.7,7.1a1.2,1.2,0,0,1,.2,1.1c-.1.3-.4.5-1,.5H70.7a4.6,4.6,0,0,1-2-.3,2.3,2.3,0,0,1-1.1-1.1L65,25.9a5,5,0,0,0-1.3-1.7,4.7,4.7,0,0,0-2.3-.4H59.9v7.6a1.6,1.6,0,0,1-.3,1.1,1.7,1.7,0,0,1-1.2.4H55.5a1.3,1.3,0,0,1-1.4-1.5V8.8a1.7,1.7,0,0,1,.3-1.2,1.6,1.6,0,0,1,1.1-.3Zm1.6,10.5a2.9,2.9,0,0,0,.8-2.2,2.6,2.6,0,0,0-.8-2.2,2.9,2.9,0,0,0-2.2-.8h-5v5.9h5A2.9,2.9,0,0,0,67.1,17.8Zm9.3,3.4a7.4,7.4,0,0,1,2.2-5.6,9.4,9.4,0,0,1,6.4-2c2.8,0,5,.7,6.4,2a7,7,0,0,1,2.2,5.6v4.6a7,7,0,0,1-2.2,5.6c-1.4,1.3-3.6,2-6.4,2a9.4,9.4,0,0,1-6.4-2,7.4,7.4,0,0,1-2.2-5.6Zm11.8-.1c0-1.8-1.1-2.7-3.2-2.7s-3.1.9-3.1,2.7v4.8c0,1.8,1,2.7,3.1,2.7s3.2-.9,3.2-2.7ZM108.3,7.3a8.6,8.6,0,0,1,6.3,2.2,8.2,8.2,0,0,1,2.2,6.1c0,3.6-1.4,6.1-4.1,7.4a12.7,12.7,0,0,0,.7,1.2l3.7,7.1c.3.4.4.8.2,1.1s-.4.5-.9.5h-2.9a4.9,4.9,0,0,1-2-.3,2.2,2.2,0,0,1-1-1.1l-2.7-5.6a4,4,0,0,0-1.3-1.7,4.5,4.5,0,0,0-2.3-.4h-1.4v7.6a1.2,1.2,0,0,1-.4,1.1,1.6,1.6,0,0,1-1.1.4H98.4a1.7,1.7,0,0,1-1.2-.4,1.6,1.6,0,0,1-.3-1.1V8.8a1.7,1.7,0,0,1,.3-1.2,1.7,1.7,0,0,1,1.2-.3ZM110,17.8a3.3,3.3,0,0,0,.8-2.2,2.9,2.9,0,0,0-.8-2.2,3.1,3.1,0,0,0-2.2-.8h-5v5.9h5A3.1,3.1,0,0,0,110,17.8Zm9.3,3.4a7,7,0,0,1,2.2-5.6c1.4-1.3,3.6-2,6.4-2a9.4,9.4,0,0,1,6.4,2,7.4,7.4,0,0,1,2.2,5.6v4.6a7.4,7.4,0,0,1-2.2,5.6,9.4,9.4,0,0,1-6.4,2c-2.8,0-5-.7-6.4-2a7,7,0,0,1-2.2-5.6Zm11.7-.1c0-1.8-1-2.7-3.1-2.7s-3.2.9-3.2,2.7v4.8c0,1.8,1.1,2.7,3.2,2.7s3.1-.9,3.1-2.7Z" transform="translate(-14.8 -2.2)"/></svg>